<svg width="1520" height="679" viewBox="0 0 1520 679" fill="none" xmlns="http://www.w3.org/2000/svg">
<rect x="-0.000976562" width="344" height="65" rx="30" fill="black"/>
<path d="M326.999 76.5C343.568 76.5 356.999 63.0685 356.999 46.5V30C356.999 13.4315 370.43 0 386.999 0H719.999C736.568 0 749.999 13.4315 749.999 30V649C749.999 665.569 736.568 679 719.999 679H29.999C13.4305 679 -0.000976562 665.569 -0.000976562 649V106.5C-0.000976562 89.9315 13.4305 76.5 29.999 76.5H326.999Z" fill="#FE457E"/>
<path d="M40.509 45L51.324 20.5H58.149L68.999 45H61.789L53.319 23.895H56.049L47.579 45H40.509ZM46.424 40.24L48.209 35.13H60.179L61.964 40.24H46.424ZM82.5837 45.315C80.8803 45.315 79.457 44.965 78.3137 44.265C77.1937 43.565 76.3537 42.4917 75.7937 41.045C75.2337 39.5983 74.9537 37.7433 74.9537 35.48C74.9537 33.2633 75.2453 31.4317 75.8287 29.985C76.4353 28.5383 77.3103 27.465 78.4537 26.765C79.597 26.065 80.9737 25.715 82.5837 25.715C84.3103 25.715 85.8737 26.1117 87.2737 26.905C88.697 27.6983 89.817 28.83 90.6337 30.3C91.4737 31.7467 91.8937 33.4733 91.8937 35.48C91.8937 37.51 91.4737 39.26 90.6337 40.73C89.817 42.1767 88.697 43.3083 87.2737 44.125C85.8737 44.9183 84.3103 45.315 82.5837 45.315ZM70.6487 45V19.03H77.2987V29.215L76.9487 35.48L76.9837 41.745V45H70.6487ZM81.1837 40.03C81.9303 40.03 82.5953 39.855 83.1787 39.505C83.7853 39.155 84.2637 38.6417 84.6137 37.965C84.987 37.265 85.1737 36.4367 85.1737 35.48C85.1737 34.5233 84.987 33.7183 84.6137 33.065C84.2637 32.3883 83.7853 31.875 83.1787 31.525C82.5953 31.175 81.9303 31 81.1837 31C80.437 31 79.7603 31.175 79.1537 31.525C78.5703 31.875 78.092 32.3883 77.7187 33.065C77.3687 33.7183 77.1937 34.5233 77.1937 35.48C77.1937 36.4367 77.3687 37.265 77.7187 37.965C78.092 38.6417 78.5703 39.155 79.1537 39.505C79.7603 39.855 80.437 40.03 81.1837 40.03ZM104.505 45.315C102.428 45.315 100.585 44.895 98.9746 44.055C97.3646 43.215 96.0929 42.06 95.1596 40.59C94.2496 39.0967 93.7946 37.3933 93.7946 35.48C93.7946 33.5667 94.2496 31.875 95.1596 30.405C96.0929 28.935 97.3646 27.7917 98.9746 26.975C100.585 26.135 102.428 25.715 104.505 25.715C106.581 25.715 108.425 26.135 110.035 26.975C111.668 27.7917 112.94 28.935 113.85 30.405C114.76 31.875 115.215 33.5667 115.215 35.48C115.215 37.3933 114.76 39.0967 113.85 40.59C112.94 42.06 111.668 43.215 110.035 44.055C108.425 44.895 106.581 45.315 104.505 45.315ZM104.505 40.03C105.275 40.03 105.951 39.855 106.535 39.505C107.141 39.155 107.62 38.6417 107.97 37.965C108.32 37.265 108.495 36.4367 108.495 35.48C108.495 34.5233 108.32 33.7183 107.97 33.065C107.62 32.3883 107.141 31.875 106.535 31.525C105.951 31.175 105.275 31 104.505 31C103.758 31 103.081 31.175 102.475 31.525C101.891 31.875 101.413 32.3883 101.04 33.065C100.69 33.7183 100.515 34.5233 100.515 35.48C100.515 36.4367 100.69 37.265 101.04 37.965C101.413 38.6417 101.891 39.155 102.475 39.505C103.081 39.855 103.758 40.03 104.505 40.03ZM126.275 45.315C124.735 45.315 123.347 45.0117 122.11 44.405C120.897 43.7983 119.94 42.8533 119.24 41.57C118.563 40.2633 118.225 38.6183 118.225 36.635V26.03H124.875V35.55C124.875 37.02 125.143 38.07 125.68 38.7C126.24 39.33 127.022 39.645 128.025 39.645C128.678 39.645 129.273 39.4933 129.81 39.19C130.347 38.8867 130.778 38.4083 131.105 37.755C131.432 37.0783 131.595 36.215 131.595 35.165V26.03H138.245V45H131.91V39.645L133.135 41.15C132.482 42.55 131.537 43.6 130.3 44.3C129.063 44.9767 127.722 45.315 126.275 45.315ZM150.999 45.315C148.572 45.315 146.682 44.72 145.329 43.53C143.975 42.3167 143.299 40.4967 143.299 38.07V21.795H149.949V38C149.949 38.6767 150.135 39.2133 150.509 39.61C150.882 39.9833 151.36 40.17 151.944 40.17C152.737 40.17 153.414 39.9717 153.974 39.575L155.619 44.23C155.059 44.6033 154.37 44.8717 153.554 45.035C152.737 45.2217 151.885 45.315 150.999 45.315ZM140.534 31.7V26.73H154.289V31.7H140.534ZM168.683 45V20.5H179.883C182.123 20.5 184.048 20.8617 185.658 21.585C187.292 22.3083 188.552 23.3583 189.438 24.735C190.325 26.0883 190.768 27.6983 190.768 29.565C190.768 31.4083 190.325 33.0067 189.438 34.36C188.552 35.7133 187.292 36.7633 185.658 37.51C184.048 38.2333 182.123 38.595 179.883 38.595H172.533L175.613 35.585V45H168.683ZM175.613 36.32L172.533 33.135H179.463C180.91 33.135 181.983 32.82 182.683 32.19C183.407 31.56 183.768 30.685 183.768 29.565C183.768 28.4217 183.407 27.535 182.683 26.905C181.983 26.275 180.91 25.96 179.463 25.96H172.533L175.613 22.775V36.32ZM193.969 45V26.03H200.304V31.56L199.359 29.985C199.919 28.5617 200.829 27.5 202.089 26.8C203.349 26.0767 204.877 25.715 206.674 25.715V31.7C206.371 31.6533 206.102 31.63 205.869 31.63C205.659 31.6067 205.426 31.595 205.169 31.595C203.816 31.595 202.719 31.9683 201.879 32.715C201.039 33.4383 200.619 34.6283 200.619 36.285V45H193.969ZM218.767 45.315C216.691 45.315 214.847 44.895 213.237 44.055C211.627 43.215 210.356 42.06 209.422 40.59C208.512 39.0967 208.057 37.3933 208.057 35.48C208.057 33.5667 208.512 31.875 209.422 30.405C210.356 28.935 211.627 27.7917 213.237 26.975C214.847 26.135 216.691 25.715 218.767 25.715C220.844 25.715 222.687 26.135 224.297 26.975C225.931 27.7917 227.202 28.935 228.112 30.405C229.022 31.875 229.477 33.5667 229.477 35.48C229.477 37.3933 229.022 39.0967 228.112 40.59C227.202 42.06 225.931 43.215 224.297 44.055C222.687 44.895 220.844 45.315 218.767 45.315ZM218.767 40.03C219.537 40.03 220.214 39.855 220.797 39.505C221.404 39.155 221.882 38.6417 222.232 37.965C222.582 37.265 222.757 36.4367 222.757 35.48C222.757 34.5233 222.582 33.7183 222.232 33.065C221.882 32.3883 221.404 31.875 220.797 31.525C220.214 31.175 219.537 31 218.767 31C218.021 31 217.344 31.175 216.737 31.525C216.154 31.875 215.676 32.3883 215.302 33.065C214.952 33.7183 214.777 34.5233 214.777 35.48C214.777 36.4367 214.952 37.265 215.302 37.965C215.676 38.6417 216.154 39.155 216.737 39.505C217.344 39.855 218.021 40.03 218.767 40.03ZM231.753 52.105C230.866 52.105 230.026 52.0117 229.233 51.825C228.416 51.6617 227.716 51.4283 227.133 51.125L228.813 46.4C229.42 46.7733 230.108 46.96 230.878 46.96C231.461 46.96 231.928 46.7617 232.278 46.365C232.651 45.9683 232.838 45.3383 232.838 44.475V26.03H239.488V44.51C239.488 46.82 238.811 48.6633 237.458 50.04C236.105 51.4167 234.203 52.105 231.753 52.105ZM236.163 23.93C234.95 23.93 233.97 23.5917 233.223 22.915C232.476 22.2383 232.103 21.3983 232.103 20.395C232.103 19.3917 232.476 18.5517 233.223 17.875C233.97 17.1983 234.95 16.86 236.163 16.86C237.376 16.86 238.356 17.1867 239.103 17.84C239.85 18.47 240.223 19.2867 240.223 20.29C240.223 21.34 239.85 22.215 239.103 22.915C238.38 23.5917 237.4 23.93 236.163 23.93ZM253.709 45.315C251.469 45.315 249.509 44.895 247.829 44.055C246.172 43.1917 244.877 42.025 243.944 40.555C243.034 39.0617 242.579 37.37 242.579 35.48C242.579 33.59 243.022 31.91 243.909 30.44C244.819 28.9467 246.067 27.7917 247.654 26.975C249.24 26.135 251.025 25.715 253.009 25.715C254.875 25.715 256.579 26.1 258.119 26.87C259.659 27.6167 260.884 28.725 261.794 30.195C262.704 31.665 263.159 33.45 263.159 35.55C263.159 35.7833 263.147 36.0517 263.124 36.355C263.1 36.6583 263.077 36.9383 263.054 37.195H248.039V33.695H259.519L256.999 34.675C257.022 33.8117 256.859 33.065 256.509 32.435C256.182 31.805 255.715 31.315 255.109 30.965C254.525 30.615 253.837 30.44 253.044 30.44C252.25 30.44 251.55 30.615 250.944 30.965C250.36 31.315 249.905 31.8167 249.579 32.47C249.252 33.1 249.089 33.8467 249.089 34.71V35.725C249.089 36.6583 249.275 37.4633 249.649 38.14C250.045 38.8167 250.605 39.3417 251.329 39.715C252.052 40.065 252.915 40.24 253.919 40.24C254.852 40.24 255.645 40.1117 256.299 39.855C256.975 39.575 257.64 39.155 258.294 38.595L261.794 42.235C260.884 43.2383 259.764 44.0083 258.434 44.545C257.104 45.0583 255.529 45.315 253.709 45.315ZM275.92 45.315C273.82 45.315 271.942 44.895 270.285 44.055C268.652 43.215 267.368 42.06 266.435 40.59C265.502 39.0967 265.035 37.3933 265.035 35.48C265.035 33.5667 265.502 31.875 266.435 30.405C267.368 28.935 268.652 27.7917 270.285 26.975C271.942 26.135 273.82 25.715 275.92 25.715C278.067 25.715 279.922 26.17 281.485 27.08C283.048 27.99 284.157 29.2733 284.81 30.93L279.665 33.555C279.222 32.6683 278.673 32.0267 278.02 31.63C277.367 31.21 276.655 31 275.885 31C275.115 31 274.415 31.175 273.785 31.525C273.155 31.875 272.653 32.3883 272.28 33.065C271.93 33.7183 271.755 34.5233 271.755 35.48C271.755 36.46 271.93 37.2883 272.28 37.965C272.653 38.6417 273.155 39.155 273.785 39.505C274.415 39.855 275.115 40.03 275.885 40.03C276.655 40.03 277.367 39.8317 278.02 39.435C278.673 39.015 279.222 38.3617 279.665 37.475L284.81 40.1C284.157 41.7567 283.048 43.04 281.485 43.95C279.922 44.86 278.067 45.315 275.92 45.315ZM296.091 45.315C293.665 45.315 291.775 44.72 290.421 43.53C289.068 42.3167 288.391 40.4967 288.391 38.07V21.795H295.041V38C295.041 38.6767 295.228 39.2133 295.601 39.61C295.975 39.9833 296.453 40.17 297.036 40.17C297.83 40.17 298.506 39.9717 299.066 39.575L300.711 44.23C300.151 44.6033 299.463 44.8717 298.646 45.035C297.83 45.2217 296.978 45.315 296.091 45.315ZM285.626 31.7V26.73H299.381V31.7H285.626Z" fill="white"/>
<rect x="1520" y="679" width="341" height="97" rx="48.5" transform="rotate(180 1520 679)" fill="black"/>
<rect x="769.999" width="622" height="374" rx="30" fill="#FF8F4B"/>
<rect x="1412" y="8" width="108" height="233" rx="30" fill="#0A84FF"/>
<rect x="1407" y="261" width="113" height="113" rx="56.5" fill="#FFDB45"/>
<path d="M1446.77 631.768C1447.74 630.791 1447.74 629.209 1446.77 628.232L1430.86 612.322C1429.88 611.346 1428.3 611.346 1427.32 612.322C1426.35 613.299 1426.35 614.882 1427.32 615.858L1441.46 630L1427.32 644.142C1426.35 645.118 1426.35 646.701 1427.32 647.678C1428.3 648.654 1429.88 648.654 1430.86 647.678L1446.77 631.768ZM1265 632.5L1445 632.5L1445 627.5L1265 627.5L1265 632.5Z" fill="white"/>
<path d="M1193 569C1176.43 569 1163 582.431 1163 599V649C1163 665.569 1149.57 679 1133 679H799.999C783.43 679 769.999 665.569 769.999 649V423.5C769.999 406.931 783.43 393.5 799.999 393.5H1490C1506.57 393.5 1520 406.931 1520 423.5V539C1520 555.569 1506.57 569 1490 569H1193Z" fill="#30E584"/>
</svg>
