<svg width="1520" height="841" viewBox="0 0 1520 841" fill="none" xmlns="http://www.w3.org/2000/svg">
<rect x="-0.000976562" width="345" height="65" rx="30" fill="black"/>
<path d="M327.234 76.5C343.803 76.5 357.234 63.0685 357.234 46.5V30C357.234 13.4315 370.666 0 387.234 0H1490C1506.57 0 1520 13.4315 1520 30V811C1520 827.569 1506.57 841 1490 841H29.999C13.4305 841 -0.000976562 827.569 -0.000976562 811V106.5C-0.000976562 89.9314 13.4305 76.5 29.999 76.5H327.234Z" fill="black"/>
<path d="M111.509 20.5C113.679 20.5 115.557 20.8617 117.144 21.585C118.754 22.3083 119.991 23.335 120.854 24.665C121.717 25.995 122.149 27.57 122.149 29.39C122.149 31.1867 121.717 32.7617 120.854 34.115C119.991 35.445 118.754 36.4717 117.144 37.195C115.557 37.895 113.679 38.245 111.509 38.245H106.574V45H100.904V20.5H111.509ZM111.194 33.625C112.897 33.625 114.192 33.2633 115.079 32.54C115.966 31.7933 116.409 30.7433 116.409 29.39C116.409 28.0133 115.966 26.9633 115.079 26.24C114.192 25.4933 112.897 25.12 111.194 25.12H106.574V33.625H111.194ZM144.223 35.655C144.223 35.725 144.188 36.215 144.118 37.125H129.873C130.129 38.2917 130.736 39.2133 131.693 39.89C132.649 40.5667 133.839 40.905 135.263 40.905C136.243 40.905 137.106 40.765 137.853 40.485C138.623 40.1817 139.334 39.715 139.988 39.085L142.893 42.235C141.119 44.265 138.529 45.28 135.123 45.28C132.999 45.28 131.121 44.8717 129.488 44.055C127.854 43.215 126.594 42.06 125.708 40.59C124.821 39.12 124.378 37.4517 124.378 35.585C124.378 33.7417 124.809 32.085 125.673 30.615C126.559 29.1217 127.761 27.9667 129.278 27.15C130.818 26.31 132.533 25.89 134.423 25.89C136.266 25.89 137.934 26.2867 139.428 27.08C140.921 27.8733 142.088 29.0167 142.928 30.51C143.791 31.98 144.223 33.695 144.223 35.655ZM134.458 30.02C133.221 30.02 132.183 30.37 131.343 31.07C130.503 31.77 129.989 32.7267 129.803 33.94H139.078C138.891 32.75 138.378 31.805 137.538 31.105C136.698 30.3817 135.671 30.02 134.458 30.02ZM153.073 28.655C153.726 27.745 154.601 27.0567 155.698 26.59C156.818 26.1233 158.101 25.89 159.548 25.89V30.93C158.941 30.8833 158.533 30.86 158.323 30.86C156.76 30.86 155.535 31.3033 154.648 32.19C153.761 33.0533 153.318 34.36 153.318 36.11V45H147.858V26.17H153.073V28.655ZM169.198 45.28C167.634 45.28 166.106 45.0933 164.613 44.72C163.119 44.3233 161.929 43.8333 161.043 43.25L162.863 39.33C163.703 39.8667 164.718 40.31 165.908 40.66C167.098 40.9867 168.264 41.15 169.408 41.15C171.718 41.15 172.873 40.5783 172.873 39.435C172.873 38.8983 172.558 38.5133 171.928 38.28C171.298 38.0467 170.329 37.8483 169.023 37.685C167.483 37.4517 166.211 37.1833 165.208 36.88C164.204 36.5767 163.329 36.04 162.583 35.27C161.859 34.5 161.498 33.4033 161.498 31.98C161.498 30.79 161.836 29.74 162.513 28.83C163.213 27.8967 164.216 27.1733 165.523 26.66C166.853 26.1467 168.416 25.89 170.213 25.89C171.543 25.89 172.861 26.0417 174.168 26.345C175.498 26.625 176.594 27.0217 177.458 27.535L175.638 31.42C173.981 30.4867 172.173 30.02 170.213 30.02C169.046 30.02 168.171 30.1833 167.588 30.51C167.004 30.8367 166.713 31.2567 166.713 31.77C166.713 32.3533 167.028 32.7617 167.658 32.995C168.288 33.2283 169.291 33.45 170.668 33.66C172.208 33.9167 173.468 34.1967 174.448 34.5C175.428 34.78 176.279 35.305 177.003 36.075C177.726 36.845 178.088 37.9183 178.088 39.295C178.088 40.4617 177.738 41.5 177.038 42.41C176.338 43.32 175.311 44.0317 173.958 44.545C172.628 45.035 171.041 45.28 169.198 45.28ZM190.417 45.28C188.433 45.28 186.648 44.8717 185.062 44.055C183.498 43.215 182.273 42.06 181.387 40.59C180.5 39.12 180.057 37.4517 180.057 35.585C180.057 33.7183 180.5 32.05 181.387 30.58C182.273 29.11 183.498 27.9667 185.062 27.15C186.648 26.31 188.433 25.89 190.417 25.89C192.4 25.89 194.173 26.31 195.737 27.15C197.3 27.9667 198.525 29.11 199.412 30.58C200.298 32.05 200.742 33.7183 200.742 35.585C200.742 37.4517 200.298 39.12 199.412 40.59C198.525 42.06 197.3 43.215 195.737 44.055C194.173 44.8717 192.4 45.28 190.417 45.28ZM190.417 40.8C191.817 40.8 192.96 40.3333 193.847 39.4C194.757 38.4433 195.212 37.1717 195.212 35.585C195.212 33.9983 194.757 32.7383 193.847 31.805C192.96 30.8483 191.817 30.37 190.417 30.37C189.017 30.37 187.862 30.8483 186.952 31.805C186.042 32.7383 185.587 33.9983 185.587 35.585C185.587 37.1717 186.042 38.4433 186.952 39.4C187.862 40.3333 189.017 40.8 190.417 40.8ZM215.836 25.89C218.169 25.89 220.048 26.59 221.471 27.99C222.918 29.39 223.641 31.4667 223.641 34.22V45H218.181V35.06C218.181 33.5667 217.854 32.4583 217.201 31.735C216.548 30.9883 215.603 30.615 214.366 30.615C212.989 30.615 211.893 31.0467 211.076 31.91C210.259 32.75 209.851 34.01 209.851 35.69V45H204.391V26.17H209.606V28.375C210.329 27.5817 211.228 26.975 212.301 26.555C213.374 26.1117 214.553 25.89 215.836 25.89ZM236.185 25.89C239.102 25.89 241.342 26.59 242.905 27.99C244.469 29.3667 245.25 31.455 245.25 34.255V45H240.14V42.655C239.114 44.405 237.2 45.28 234.4 45.28C232.954 45.28 231.694 45.035 230.62 44.545C229.57 44.055 228.765 43.3783 228.205 42.515C227.645 41.6517 227.365 40.6717 227.365 39.575C227.365 37.825 228.019 36.4483 229.325 35.445C230.655 34.4417 232.697 33.94 235.45 33.94H239.79C239.79 32.75 239.429 31.84 238.705 31.21C237.982 30.5567 236.897 30.23 235.45 30.23C234.447 30.23 233.455 30.3933 232.475 30.72C231.519 31.0233 230.702 31.4433 230.025 31.98L228.065 28.165C229.092 27.4417 230.317 26.8817 231.74 26.485C233.187 26.0883 234.669 25.89 236.185 25.89ZM235.765 41.605C236.699 41.605 237.527 41.395 238.25 40.975C238.974 40.5317 239.487 39.89 239.79 39.05V37.125H236.045C233.805 37.125 232.685 37.86 232.685 39.33C232.685 40.03 232.954 40.59 233.49 41.01C234.05 41.4067 234.809 41.605 235.765 41.605Z" fill="white"/>
<path d="M327.234 76.5C343.803 76.5 357.234 63.0685 357.234 46.5V30C357.234 13.4315 370.666 0 387.234 0H1490C1506.57 0 1520 13.4315 1520 30V810C1520 826.569 1506.57 840 1490 840H29.999C13.4305 840 -0.000976562 826.569 -0.000976562 810V106.5C-0.000976562 89.9315 13.4305 76.5 29.999 76.5H327.234Z" fill="black"/>
</svg>
