<svg width="1920" height="1080" viewBox="0 0 1920 1080" fill="none" xmlns="http://www.w3.org/2000/svg">
<path d="M722 76.5C705.432 76.5 692 63.0685 692 46.5V30C692 13.4315 678.569 0 662 0H30C13.4315 0 0 13.4315 0 30V1080H1890C1906.57 1080 1920 1066.57 1920 1050V76.5H722Z" fill="#FFDB45"/>
<mask id="mask0_721_73" style="mask-type:alpha" maskUnits="userSpaceOnUse" x="0" y="0" width="1920" height="1080">
<path d="M722 76.5C705.432 76.5 692 63.0685 692 46.5V30C692 13.4315 678.569 0 662 0H30C13.4315 0 0 13.4315 0 30V1080H1890C1906.57 1080 1920 1066.57 1920 1050V76.5H722Z" fill="#FFDB45"/>
</mask>
<g mask="url(#mask0_721_73)">
<path d="M608.65 476C774.052 474.586 908 339.932 908 174.177C908 8.4213 772.639 -128 605.824 -128C439.008 -128 305.414 5.59392 304 171.349H606.176V774.996H304C304 774.996 304 776.763 304 777.47C304 776.763 304 775.703 304 774.996H2.88385V171.349H304C302.586 5.94734 167.932 -128 2.1763 -128C-163.579 -128 -300 7.36104 -300 174.177C-300 340.992 -166.406 474.586 -0.650604 476C-166.053 477.414 -300 612.068 -300 777.823C-300 943.579 -164.639 1080 2.1763 1080C168.992 1080 304 944.992 304 778.177C304 944.992 439.361 1080 605.824 1080C772.286 1080 908 944.639 908 777.823C908 611.008 774.406 477.414 608.65 476Z" fill="#FFD130"/>
</g>
</svg>
