<svg width="1920" height="1080" viewBox="0 0 1920 1080" fill="none" xmlns="http://www.w3.org/2000/svg">
<path d="M1198 76.5C1214.57 76.5 1228 63.0685 1228 46.5V30C1228 13.4315 1241.43 0 1258 0H1890C1906.57 0 1920 13.4315 1920 30V1080H0V76.5H1198Z" fill="#B53BFE"/>
<mask id="mask0_721_74" style="mask-type:alpha" maskUnits="userSpaceOnUse" x="0" y="0" width="1920" height="1080">
<path d="M1198 76.5C1214.57 76.5 1228 63.0685 1228 46.5V30C1228 13.4315 1241.43 0 1258 0H1890C1906.57 0 1920 13.4315 1920 30V1080H30C13.4315 1080 0 1066.57 0 1050V106.5C0 89.9315 13.4315 76.5 30 76.5H1198Z" fill="#B53BFE"/>
</mask>
<g mask="url(#mask0_721_74)">
<path d="M2240.61 400.5C2240.61 294.071 2162.73 208.038 2066.69 207.667C2162.73 207.667 2240.61 121.263 2240.61 14.8334C2240.61 -91.5958 2162.36 -178 2065.95 -178H1334.66C1238.25 -178 1160 -91.5958 1160 14.8334C1160 121.263 1237.88 207.296 1333.92 207.667C1237.88 207.667 1160 294.071 1160 400.5C1160 506.929 1237.88 593.333 1334.29 593.333C1237.88 593.333 1160 679.738 1160 786.167C1160 892.596 1238.25 979 1334.66 979H2065.95C2162.36 979 2240.61 892.596 2240.61 786.167C2240.61 679.738 2162.73 593.333 2066.32 593.333C2162.73 593.333 2240.61 506.929 2240.61 400.5Z" fill="#891FC8" fill-opacity="0.3"/>
</g>
</svg>
