<svg width="1920" height="1080" viewBox="0 0 1920 1080" fill="none" xmlns="http://www.w3.org/2000/svg">
<path d="M1198 76.5C1214.57 76.5 1228 63.0685 1228 46.5V30C1228 13.4315 1241.43 0 1258 0H1890C1906.57 0 1920 13.4315 1920 30V1080H30C13.4315 1080 0 1066.57 0 1050V76.5H1198Z" fill="#FF8F4B"/>
<mask id="mask0_684_100" style="mask-type:alpha" maskUnits="userSpaceOnUse" x="0" y="0" width="1920" height="1080">
<path d="M1198 76.5C1214.57 76.5 1228 63.0685 1228 46.5V30C1228 13.4315 1241.43 0 1258 0H1890C1906.57 0 1920 13.4315 1920 30V1080H30C13.4315 1080 0 1066.57 0 1050V76.5H1198Z" fill="#FF8F4B"/>
</mask>
<g mask="url(#mask0_684_100)">
<path d="M1737.1 501.855C1998.06 1168.71 1415.27 1168.71 1675.9 501.855C1164.4 1168.71 961.285 965.597 1628.14 454.102C961.285 714.726 961.285 131.938 1628.14 392.898C961.285 -118.597 1164.4 -321.715 1675.9 345.145C1414.94 -321.715 1997.73 -321.715 1737.1 345.145C2248.6 -321.715 2451.71 -118.597 1784.86 392.898C2451.71 131.938 2451.71 714.726 1784.86 454.102C2451.71 965.597 2248.6 1168.71 1737.1 501.855Z" fill="#EE752C" fill-opacity="0.3"/>
</g>
</svg>
