<svg width="1920" height="1080" viewBox="0 0 1920 1080" fill="none" xmlns="http://www.w3.org/2000/svg">
<path d="M1198 76.5C1214.57 76.5 1228 63.0685 1228 46.5V30C1228 13.4315 1241.43 0 1258 0H1890C1906.57 0 1920 13.4315 1920 30V1080H30C13.4315 1080 0 1066.57 0 1050V76.5H1198Z" fill="#FE457E"/>
<mask id="mask0_684_72" style="mask-type:alpha" maskUnits="userSpaceOnUse" x="0" y="0" width="1920" height="1080">
<path d="M1198 76.5C1214.57 76.5 1228 63.0685 1228 46.5V30C1228 13.4315 1241.43 0 1258 0H1890C1906.57 0 1920 13.4315 1920 30V1080H30C13.4315 1080 0 1066.57 0 1050V76.5H1198Z" fill="#FE457E"/>
</mask>
<g mask="url(#mask0_684_72)">
<path d="M337.067 103.744L355.507 225.318L482.204 205.853L409.464 305.57L513.622 381.725L391.365 400.166L410.831 526.862L311.112 453.781L234.958 557.597L216.517 435.682L89.8208 455.147L162.56 355.771L57.7198 278.934L181.001 260.493L162.219 133.113L260.912 206.536L337.408 103.744H337.067ZM156.755 99.6464L113.726 -191.311L-31.7529 -169.797L32.1073 260.151L-206.259 85.6449L-293 204.487L56.0127 459.928L-234.945 504.323L-212.748 649.802L215.493 584.576L40.9866 821.918L159.487 909L415.953 559.988L460.348 851.97L605.826 829.772L540.6 401.19L778.967 575.014L865.708 456.172L516.012 201.072L807.653 156.335L785.455 10.8565L357.898 76.4244L533.429 -160.235L415.27 -248L157.096 99.6464H156.755Z" fill="#EE3C73"/>
</g>
</svg>
