<svg width="1920" height="1080" viewBox="0 0 1920 1080" fill="none" xmlns="http://www.w3.org/2000/svg">
<path d="M722 76.5C705.431 76.5 692 63.0685 692 46.5V30C692 13.4315 678.569 0 662 0H30C13.4315 0 0 13.4315 0 30V1080H1890C1906.57 1080 1920 1066.57 1920 1050V76.5H722Z" fill="#30E584"/>
<mask id="mask0_684_90" style="mask-type:alpha" maskUnits="userSpaceOnUse" x="0" y="0" width="1920" height="1080">
<path d="M722 76.5C705.431 76.5 692 63.0685 692 46.5V30C692 13.4315 678.569 0 662 0H30C13.4315 0 0 13.4315 0 30V1080H1890C1906.57 1080 1920 1066.57 1920 1050V76.5H722Z" fill="#30E584"/>
</mask>
<g mask="url(#mask0_684_90)">
<path d="M880.587 310.94V28.7594C880.587 28.7594 406.226 32.1429 358.519 526.466L175.812 524.098C176.489 495.677 190.361 301.128 420.098 282.18V0C420.098 0 -70.8421 3.72174 -104 524.098L140.286 527.143C139.609 555.564 125.737 750.113 -104 769.06V1051.24C-104 1051.24 370.361 1047.86 418.068 553.534L600.775 555.902C600.098 584.323 586.226 778.872 356.489 797.82V1080C356.489 1080 847.429 1076.28 880.587 555.902L636.301 552.519C636.978 524.098 650.85 329.887 880.587 310.602" fill="#2ED77C"/>
</g>
</svg>
