<svg width="1920" height="1080" viewBox="0 0 1920 1080" fill="none" xmlns="http://www.w3.org/2000/svg">
<path d="M1198 76.5C1214.57 76.5 1228 63.0685 1228 46.5V30C1228 13.4315 1241.43 0 1258 0H1890C1906.57 0 1920 13.4315 1920 30V1080H30C13.4315 1080 0 1066.57 0 1050V76.5H1198Z" fill="#FF5353"/>
<mask id="mask0_721_72" style="mask-type:alpha" maskUnits="userSpaceOnUse" x="0" y="0" width="1920" height="1080">
<path d="M1198 76.5C1214.57 76.5 1228 63.0685 1228 46.5V30C1228 13.4315 1241.43 0 1258 0H1890C1906.57 0 1920 13.4315 1920 30V1080H30C13.4315 1080 0 1066.57 0 1050V76.5H1198Z" fill="#FF5353"/>
</mask>
<g mask="url(#mask0_721_72)">
<path d="M1992.65 -136H1279C1279 75.4781 1440.16 249.557 1636 249.557C1831.84 249.557 1992.65 75.4781 1992.65 -136Z" fill="#F34141"/>
<path d="M1992.65 249.889H1279C1279 461.367 1440.16 635.445 1636 635.445C1831.84 635.445 1992.65 461.367 1992.65 249.889Z" fill="#F34141"/>
<path d="M1636 1021C1831.84 1021 1992.65 846.922 1992.65 635.443H1279C1279 846.922 1440.16 1021 1635.66 1021" fill="#F34141"/>
</g>
</svg>
