<svg width="1920" height="1080" viewBox="0 0 1920 1080" fill="none" xmlns="http://www.w3.org/2000/svg">
<path d="M368 76.5C384.569 76.5 398 63.0685 398 46.5V30C398 13.4315 411.431 0 428 0H1890C1906.57 0 1920 13.4315 1920 30V1080H0V106.5C0 89.9315 13.4315 76.5 30 76.5H368Z" fill="black"/>
<path d="M41 30C41 13.4315 54.4315 0 71 0H355C371.569 0 385 13.4315 385 30V35C385 51.5685 371.569 65 355 65H71C54.4315 65 41 51.5685 41 35V30Z" fill="black"/>
<path d="M278.855 37.2001C278.855 37.2701 278.82 37.7601 278.75 38.6701H264.505C264.761 39.8367 265.368 40.7584 266.325 41.4351C267.281 42.1117 268.471 42.4501 269.895 42.4501C270.875 42.4501 271.738 42.3101 272.485 42.0301C273.255 41.7267 273.966 41.2601 274.62 40.6301L277.525 43.7801C275.751 45.8101 273.161 46.8251 269.755 46.8251C267.631 46.8251 265.753 46.4167 264.12 45.6001C262.486 44.7601 261.226 43.6051 260.34 42.1351C259.453 40.6651 259.01 38.9967 259.01 37.1301C259.01 35.2867 259.441 33.6301 260.305 32.1601C261.191 30.6667 262.393 29.5117 263.91 28.6951C265.45 27.8551 267.165 27.4351 269.055 27.4351C270.898 27.4351 272.566 27.8317 274.06 28.6251C275.553 29.4184 276.72 30.5617 277.56 32.0551C278.423 33.5251 278.855 35.2401 278.855 37.2001ZM269.09 31.5651C267.853 31.5651 266.815 31.9151 265.975 32.6151C265.135 33.3151 264.621 34.2717 264.435 35.4851H273.71C273.523 34.2951 273.01 33.3501 272.17 32.6501C271.33 31.9267 270.303 31.5651 269.09 31.5651Z" fill="white"/>
<path d="M249.07 46.8251C247.064 46.8251 245.255 46.4167 243.645 45.6001C242.059 44.7601 240.81 43.6051 239.9 42.1351C239.014 40.6651 238.57 38.9967 238.57 37.1301C238.57 35.2634 239.014 33.5951 239.9 32.1251C240.81 30.6551 242.059 29.5117 243.645 28.6951C245.255 27.8551 247.064 27.4351 249.07 27.4351C251.054 27.4351 252.78 27.8551 254.25 28.6951C255.744 29.5117 256.829 30.6901 257.505 32.2301L253.27 34.5051C252.29 32.7784 250.879 31.9151 249.035 31.9151C247.612 31.9151 246.434 32.3817 245.5 33.3151C244.567 34.2484 244.1 35.5201 244.1 37.1301C244.1 38.7401 244.567 40.0117 245.5 40.9451C246.434 41.8784 247.612 42.3451 249.035 42.3451C250.902 42.3451 252.314 41.4817 253.27 39.7551L257.505 42.0651C256.829 43.5584 255.744 44.7251 254.25 45.5651C252.78 46.4051 251.054 46.8251 249.07 46.8251Z" fill="white"/>
<path d="M229.443 27.715H234.903V46.545H229.443V27.715ZM232.173 25.09C231.17 25.09 230.353 24.7983 229.723 24.215C229.093 23.6317 228.778 22.9083 228.778 22.045C228.778 21.1817 229.093 20.4583 229.723 19.875C230.353 19.2917 231.17 19 232.173 19C233.177 19 233.993 19.28 234.623 19.84C235.253 20.4 235.568 21.1 235.568 21.94C235.568 22.85 235.253 23.6083 234.623 24.215C233.993 24.7983 233.177 25.09 232.173 25.09Z" fill="white"/>
<path d="M227.215 27.7148L219.27 46.5448H213.635L205.725 27.7148H211.36L216.575 40.5248L221.965 27.7148H227.215Z" fill="white"/>
<path d="M198.153 30.2001C198.807 29.2901 199.682 28.6017 200.778 28.1351C201.898 27.6684 203.182 27.4351 204.628 27.4351V32.4751C204.022 32.4284 203.613 32.4051 203.403 32.4051C201.84 32.4051 200.615 32.8484 199.728 33.7351C198.842 34.5984 198.398 35.9051 198.398 37.6551V46.5451H192.938V27.7151H198.153V30.2001Z" fill="white"/>
<path d="M189.304 37.2001C189.304 37.2701 189.269 37.7601 189.199 38.6701H174.954C175.211 39.8367 175.817 40.7584 176.774 41.4351C177.731 42.1117 178.921 42.4501 180.344 42.4501C181.324 42.4501 182.187 42.3101 182.934 42.0301C183.704 41.7267 184.416 41.2601 185.069 40.6301L187.974 43.7801C186.201 45.8101 183.611 46.8251 180.204 46.8251C178.081 46.8251 176.202 46.4167 174.569 45.6001C172.936 44.7601 171.676 43.6051 170.789 42.1351C169.902 40.6651 169.459 38.9967 169.459 37.1301C169.459 35.2867 169.891 33.6301 170.754 32.1601C171.641 30.6667 172.842 29.5117 174.359 28.6951C175.899 27.8551 177.614 27.4351 179.504 27.4351C181.347 27.4351 183.016 27.8317 184.509 28.6251C186.002 29.4184 187.169 30.5617 188.009 32.0551C188.872 33.5251 189.304 35.2401 189.304 37.2001ZM179.539 31.5651C178.302 31.5651 177.264 31.9151 176.424 32.6151C175.584 33.3151 175.071 34.2717 174.884 35.4851H184.159C183.972 34.2951 183.459 33.3501 182.619 32.6501C181.779 31.9267 180.752 31.5651 179.539 31.5651Z" fill="white"/>
<path d="M156.975 46.965C155.038 46.965 153.16 46.7083 151.34 46.195C149.543 45.6583 148.097 44.97 147 44.13L148.925 39.86C149.975 40.63 151.223 41.2483 152.67 41.715C154.117 42.1817 155.563 42.415 157.01 42.415C158.62 42.415 159.81 42.1817 160.58 41.715C161.35 41.225 161.735 40.5833 161.735 39.79C161.735 39.2067 161.502 38.7283 161.035 38.355C160.592 37.9583 160.008 37.6433 159.285 37.41C158.585 37.1767 157.628 36.92 156.415 36.64C154.548 36.1967 153.02 35.7533 151.83 35.31C150.64 34.8667 149.613 34.155 148.75 33.175C147.91 32.195 147.49 30.8883 147.49 29.255C147.49 27.8317 147.875 26.5483 148.645 25.405C149.415 24.2383 150.57 23.3167 152.11 22.64C153.673 21.9633 155.575 21.625 157.815 21.625C159.378 21.625 160.907 21.8117 162.4 22.185C163.893 22.5583 165.2 23.095 166.32 23.795L164.57 28.1C162.307 26.8167 160.043 26.175 157.78 26.175C156.193 26.175 155.015 26.4317 154.245 26.945C153.498 27.4583 153.125 28.135 153.125 28.975C153.125 29.815 153.557 30.445 154.42 30.865C155.307 31.2617 156.648 31.6583 158.445 32.055C160.312 32.4983 161.84 32.9417 163.03 33.385C164.22 33.8283 165.235 34.5283 166.075 35.485C166.938 36.4417 167.37 37.7367 167.37 39.37C167.37 40.77 166.973 42.0533 166.18 43.22C165.41 44.3633 164.243 45.2733 162.68 45.95C161.117 46.6267 159.215 46.965 156.975 46.965Z" fill="white"/>
</svg>
