<svg width="1920" height="1080" viewBox="0 0 1920 1080" fill="none" xmlns="http://www.w3.org/2000/svg">
<path d="M722 76.5C705.432 76.5 692 63.0685 692 46.5V30C692 13.4315 678.569 0 662 0H30C13.4315 0 0 13.4315 0 30V1080H1920V76.5H722Z" fill="#0A84FF"/>
<mask id="mask0_721_71" style="mask-type:alpha" maskUnits="userSpaceOnUse" x="0" y="0" width="1920" height="1080">
<path d="M722 76.5C705.432 76.5 692 63.0685 692 46.5V30C692 13.4315 678.569 0 662 0H30C13.4315 0 0 13.4315 0 30V1080H1920V76.5H722Z" fill="#2B7FD4"/>
</mask>
<g mask="url(#mask0_721_71)">
<path d="M214.514 338.718C316.774 302.584 416.865 241.156 503.587 154.434C590.309 67.7124 651.736 -32.7404 687.87 -135C585.611 -98.8659 485.52 -37.4379 398.437 49.284C311.715 136.006 250.287 236.097 214.153 338.357C178.018 236.097 116.59 136.006 29.8683 49.284C-56.8536 -37.4379 -157.307 -98.8659 -259.566 -135C-223.432 -32.7404 -162.004 67.3511 -75.2822 154.434C11.4398 241.156 111.893 302.584 213.791 338.718" fill="#0178F0"/>
<path d="M319.657 443.535C421.917 407.401 522.009 345.973 608.73 259.251C695.452 172.529 756.881 72.076 793.015 -30.1836C690.755 5.95053 590.664 67.3785 503.581 154.1C416.859 240.822 355.431 340.914 319.297 443.173C355.431 545.072 416.859 645.525 503.581 732.247C590.303 818.968 690.755 880.758 793.015 916.531C756.881 814.271 695.452 714.18 608.73 627.096C522.009 540.374 421.917 478.946 319.657 442.812" fill="#0178F0"/>
<path d="M-364 916.869C-261.74 880.735 -161.649 819.307 -74.5653 732.585C12.1566 645.863 73.5838 545.411 109.718 443.512C73.5838 341.614 12.1566 241.161 -74.5653 154.439C-161.287 67.7174 -261.74 6.2894 -364 -29.8447C-327.866 72.4148 -266.438 172.506 -179.716 259.59C-92.9938 346.312 7.09772 407.739 109.357 443.874C7.09772 480.008 -92.9938 541.436 -179.716 628.158C-266.438 714.88 -327.866 815.332 -364 917.592" fill="#0178F0"/>
<path d="M214.514 548.281C112.254 584.415 12.1624 645.843 -74.5595 732.565C-161.281 819.287 -222.71 919.74 -258.844 1022C-156.584 985.865 -56.4934 924.438 30.5898 837.716C117.312 750.994 178.74 650.902 214.874 548.643C251.008 650.902 312.436 750.994 399.158 837.716C485.88 924.438 586.333 985.865 688.593 1022C652.459 919.74 591.031 819.649 504.309 732.565C417.587 645.843 317.134 584.415 215.236 548.281" fill="#0178F0"/>
</g>
</svg>
