<svg width="964" height="343" viewBox="0 0 964 343" fill="none" xmlns="http://www.w3.org/2000/svg">
<path d="M859.877 244.882L910.016 77.168H963.999L888.004 294.672C886.373 299.447 884.16 304.571 881.365 310.045C878.686 315.519 875.018 320.702 870.359 325.594C865.817 330.602 860.051 334.678 853.063 337.823C846.192 340.968 837.748 342.54 827.732 342.54C822.956 342.54 819.055 342.249 816.027 341.666C812.998 341.084 809.388 340.269 805.195 339.221V302.359C806.476 302.359 807.816 302.359 809.213 302.359C810.611 302.475 811.95 302.533 813.231 302.533C819.87 302.533 825.286 301.776 829.479 300.262C833.671 298.748 837.049 296.419 839.611 293.274C842.174 290.246 844.212 286.286 845.726 281.394L859.877 244.882ZM838.913 77.168L879.967 214.134L887.13 267.418L852.889 271.087L784.93 77.168H838.913Z" fill="black"/>
<path d="M775.148 77.1678V112.807H665.086V77.1678H775.148ZM692.339 30.5225H742.654V209.242C742.654 214.716 743.352 218.909 744.75 221.821C746.264 224.733 748.477 226.771 751.389 227.935C754.3 228.984 757.969 229.508 762.395 229.508C765.539 229.508 768.335 229.391 770.78 229.158C773.343 228.809 775.497 228.46 777.244 228.11L777.419 265.147C773.11 266.545 768.451 267.651 763.443 268.466C758.435 269.282 752.903 269.689 746.846 269.689C735.782 269.689 726.115 267.884 717.846 264.273C709.693 260.546 703.404 254.607 698.978 246.454C694.552 238.301 692.339 227.586 692.339 214.309V30.5225Z" fill="black"/>
<path d="M600.971 213.959C600.971 210.349 599.923 207.088 597.826 204.176C595.73 201.264 591.828 198.586 586.121 196.14C580.531 193.577 572.436 191.248 561.838 189.152C552.287 187.055 543.378 184.435 535.108 181.29C526.956 178.029 519.851 174.127 513.795 169.585C507.855 165.043 503.196 159.685 499.819 153.513C496.441 147.223 494.752 140.06 494.752 132.024C494.752 124.104 496.441 116.65 499.819 109.662C503.313 102.674 508.263 96.5015 514.668 91.144C521.191 85.67 529.11 81.4189 538.428 78.3908C547.862 75.2461 558.46 73.6738 570.224 73.6738C586.645 73.6738 600.738 76.2944 612.501 81.5354C624.381 86.7765 633.466 93.9975 639.755 103.198C646.161 112.283 649.363 122.649 649.363 134.295H599.049C599.049 129.404 598.001 125.036 595.905 121.193C593.925 117.233 590.78 114.146 586.471 111.934C582.278 109.604 576.804 108.439 570.049 108.439C564.458 108.439 559.625 109.429 555.549 111.409C551.472 113.273 548.328 115.835 546.115 119.096C544.018 122.241 542.97 125.735 542.97 129.578C542.97 132.49 543.552 135.111 544.717 137.44C545.998 139.653 548.036 141.691 550.832 143.555C553.627 145.418 557.237 147.165 561.663 148.796C566.205 150.31 571.796 151.707 578.434 152.988C592.061 155.784 604.232 159.452 614.947 163.995C625.662 168.42 634.164 174.477 640.454 182.164C646.743 189.734 649.887 199.692 649.887 212.038C649.887 220.423 648.024 228.11 644.297 235.098C640.57 242.086 635.213 248.201 628.224 253.442C621.236 258.566 612.851 262.585 603.067 265.496C593.401 268.292 582.511 269.689 570.398 269.689C552.812 269.689 537.904 266.545 525.675 260.255C513.562 253.966 504.361 245.988 498.072 236.321C491.899 226.538 488.812 216.522 488.812 206.272H536.506C536.739 213.144 538.486 218.676 541.747 222.869C545.125 227.062 549.376 230.09 554.5 231.954C559.741 233.817 565.39 234.749 571.446 234.749C577.969 234.749 583.384 233.875 587.694 232.128C592.003 230.265 595.264 227.819 597.477 224.791C599.806 221.646 600.971 218.036 600.971 213.959Z" fill="black"/>
<path d="M374.556 244.882L424.696 77.168H478.679L402.683 294.672C401.053 299.447 398.84 304.571 396.045 310.045C393.366 315.519 389.697 320.702 385.039 325.594C380.496 330.602 374.731 334.678 367.743 337.823C360.871 340.968 352.428 342.54 342.411 342.54C337.636 342.54 333.734 342.249 330.706 341.666C327.678 341.084 324.068 340.269 319.875 339.221V302.359C321.156 302.359 322.495 302.359 323.893 302.359C325.291 302.475 326.63 302.533 327.911 302.533C334.55 302.533 339.965 301.776 344.158 300.262C348.351 298.748 351.729 296.419 354.291 293.274C356.853 290.246 358.891 286.286 360.406 281.394L374.556 244.882ZM353.592 77.168L394.647 214.134L401.81 267.418L367.568 271.087L299.609 77.168H353.592Z" fill="black"/>
<path d="M0 266.195V0H79.4943L141.216 165.656L203.179 0H279.791V266.195H224.553V81.9337L154.185 266.195H124.165L53.7968 81.9337V266.195H0Z" fill="black"/>
</svg>
